<svg width="542" height="144" viewBox="0 0 542 144" fill="none" xmlns="http://www.w3.org/2000/svg">
<path d="M162.585 2.61501C159.232 -1.83537 152.64 0.216923 147.698 2.72279C136.46 8.42162 118.229 18.9481 106.166 25.9133C102.928 27.7815 100.078 29.4251 97.8451 30.7005C89.9473 35.2137 85.416 42.1116 85.416 49.6292V95.9024C85.416 102.948 90.4106 106.599 94.1698 108.733C99.8306 111.944 116.879 117.638 131.104 122.236L131.338 122.313C132.423 122.663 133.504 122.834 134.541 122.834V122.843C137.383 122.843 139.915 121.558 141.424 119.205C142.32 117.809 144.786 112.711 138.843 105.823C135.115 101.498 120.665 85.2457 109.877 73.3272C120.753 60.708 137.841 41.2269 148.514 29.0524C152.772 24.1978 156.099 20.4031 157.758 18.499C159.986 15.9392 166.763 8.16115 162.585 2.61501ZM133.513 113.596C125.915 111.14 104.013 104.04 98.4716 100.892C94.6198 98.7047 94.2801 97.2182 94.2492 96.1898C95.1007 90.1856 99.3188 85.4029 103.797 80.3508C103.868 80.2699 103.943 80.1846 104.013 80.1038C114.673 91.8921 128.58 107.529 132.216 111.746C132.873 112.509 133.27 113.125 133.513 113.596ZM141.927 23.0661C129.952 36.7226 109.904 59.5808 99.5658 71.6745C98.8158 72.5458 98.0481 73.417 97.2362 74.3331C96.2479 75.4468 95.2375 76.592 94.2359 77.782V49.6247C94.2359 47.1727 95.2684 42.4664 102.16 38.5324C104.406 37.2526 107.265 35.5999 110.517 33.7228C122.5 26.807 140.608 16.3524 151.634 10.7568C152.185 10.4784 152.693 10.2404 153.156 10.0383C152.64 10.7479 151.987 11.5742 151.148 12.5352C149.494 14.4393 146.176 18.2205 141.927 23.0661Z" fill="#2845E7"/>
<path d="M78.4976 47.3144C78.4182 40.3761 73.4766 36.7655 69.7483 34.6503C64.0919 31.4394 47.0433 25.7451 32.8229 21.1465L32.5802 21.0701C28.5122 19.7499 24.5501 20.9758 22.4896 24.1823C21.5939 25.5789 19.1275 30.676 25.0707 37.5649C28.8034 41.8895 43.2576 58.1417 54.041 70.0603C43.1606 82.6839 26.0634 102.178 15.3816 114.358C11.1327 119.203 7.81912 122.984 6.16014 124.888C3.932 127.448 -2.84509 135.226 1.33323 140.772C2.76718 142.677 4.78796 143.391 7.02051 143.391H7.02493C10.0208 143.391 13.3961 142.106 16.2243 140.669C27.4577 134.97 45.6799 124.448 57.7384 117.488C60.9857 115.615 63.8404 113.967 66.0774 112.687C73.9751 108.174 78.5064 101.276 78.5064 93.7582V47.485C78.5064 47.4267 78.502 47.3728 78.4976 47.3144ZM30.405 29.7913H30.4094C37.9983 32.2433 59.9092 39.3432 65.4508 42.4913C69.2718 44.6648 69.638 46.1423 69.6733 47.1707C68.8306 53.1883 64.6037 57.971 60.1209 63.0322C60.0503 63.113 59.9753 63.1983 59.9003 63.2837C49.2405 51.4953 35.3378 35.8584 31.7022 31.6415C31.0448 30.8781 30.6477 30.2628 30.405 29.7913ZM69.6865 93.7582C69.6865 96.2102 68.6541 100.917 61.7623 104.851C59.5121 106.13 56.6442 107.787 53.388 109.669C41.4089 116.585 23.3102 127.035 12.2886 132.626C11.7327 132.909 11.2209 133.147 10.7532 133.349C11.2694 132.64 11.9313 131.809 12.7652 130.848C14.4197 128.948 17.7288 125.176 21.9689 120.339C33.948 106.674 54.0057 83.8066 64.3478 71.7084C65.0979 70.8372 65.8656 69.966 66.6774 69.0498C67.6657 67.9361 68.6761 66.791 69.6777 65.6009H69.6865V93.7582Z" fill="#2845E7"/>
<path d="M180.209 47.0797C180.209 44.255 182.565 41.8569 185.508 41.8569C188.199 41.8569 190.472 44.255 190.472 47.0797V89.9893H213.362C221.608 89.9893 221.776 101.212 213.362 101.212H185.508C182.565 101.212 180.209 99.0697 180.209 95.989V47.0842V47.0797Z" fill="#2845E7"/>
<path d="M233.014 47.0853C233.014 40.0617 244.124 39.8057 244.124 47.0853V95.9901C244.124 103.099 233.014 103.27 233.014 95.9901V47.0853Z" fill="#2845E7"/>
<path d="M279.833 97.3721L257.618 50.0076C254.335 43.24 264.267 37.6759 267.969 44.7848L275.461 62.0026L285.137 84.6138L294.645 62.0026L302.137 44.7848C305.503 38.2777 315.263 42.3868 312.404 49.4957L290.948 97.3721C289.011 102.77 283.037 104.054 279.838 97.3721H279.833Z" fill="#2845E7"/>
<path d="M330.141 101.224C327.198 101.224 324.926 98.9113 324.926 95.916V47.2671C324.926 44.1819 327.198 41.959 330.141 41.959H360.351C368.094 41.959 367.927 53.0917 360.351 53.0917H336.115V65.9399H357.32C364.807 65.9399 364.807 77.1579 357.32 77.1579H336.115V90.0061H361.781C369.44 90.0061 370.027 101.229 361.781 101.229H330.141V101.224Z" fill="#2845E7"/>
<path d="M437.088 93.7913C437.088 86.0806 449.288 86.0806 449.288 93.7913V95.417C449.288 103.038 437.088 103.469 437.088 95.417V93.7913Z" fill="#2845E7"/>
<path d="M462.015 101.219C459.323 99.6784 457.638 96.5932 459.323 92.9961L483.476 44.9445C485.748 40.4043 491.806 40.2337 493.91 44.9445L517.643 92.9961C521.094 99.6784 510.91 104.987 507.884 98.3042L504.182 90.7687H473.129L469.511 98.3042C468.165 101.214 465.05 101.816 462.019 101.214L462.015 101.219ZM498.199 79.4653L488.691 58.3092L478.34 79.4653H498.199Z" fill="#2845E7"/>
<path d="M530.066 47.0853C530.066 40.0617 541.176 39.8057 541.176 47.0853V95.9901C541.176 103.099 530.066 103.27 530.066 95.9901V47.0853Z" fill="#2845E7"/>
<path d="M180.209 45.6474C180.209 43.5665 181.866 41.8795 183.911 41.8795H186.774C188.819 41.8795 190.476 43.5665 190.476 45.6474V48.5617C190.476 50.6426 188.819 52.3296 186.774 52.3296H183.911C181.866 52.3296 180.209 50.6426 180.209 48.5617V45.6474Z" fill="#2845E7"/>
<path d="M209.333 93.7766C209.333 91.6957 210.99 90.0087 213.035 90.0087H215.898C217.942 90.0087 219.6 91.6957 219.6 93.7766V97.4562C219.6 99.5372 217.942 101.224 215.898 101.224H213.035C210.99 101.224 209.333 99.5372 209.333 97.4562V93.7766Z" fill="#2845E7"/>
<path d="M355.877 45.7063C355.877 43.6253 357.535 41.9384 359.579 41.9384H362.443C364.487 41.9384 366.145 43.6253 366.145 45.7063V49.2976C366.145 51.3785 364.487 53.0655 362.443 53.0655H359.579C357.535 53.0655 355.877 51.3786 355.877 49.2976V45.7063Z" fill="#2845E7"/>
<path d="M459.846 100.195C458.029 99.2413 457.315 96.9688 458.252 95.1192L459.564 92.5289C460.501 90.6793 462.734 89.9529 464.551 90.9065L468.134 92.7865C469.951 93.7401 470.665 96.0125 469.728 97.8621L468.416 100.452C467.479 102.302 465.246 103.028 463.429 102.075L459.846 100.195Z" fill="#2845E7"/>
<path d="M509.2 92.5953C507.383 93.5489 506.67 95.8213 507.606 97.6709L508.918 100.261C509.855 102.111 512.088 102.837 513.905 101.884L517.124 100.195C518.941 99.2413 519.655 96.9688 518.718 95.1192L517.406 92.5289C516.469 90.6793 514.236 89.9529 512.419 90.9065L509.2 92.5953Z" fill="#2845E7"/>
<path d="M352.783 69.6973C352.783 67.6163 354.44 65.9294 356.485 65.9294H359.348C361.393 65.9294 363.05 67.6163 363.05 69.6973V73.3769C363.05 75.4579 361.393 77.1448 359.348 77.1448H356.485C354.44 77.1448 352.783 75.4579 352.783 73.3769V69.6973Z" fill="#2845E7"/>
<path d="M357.497 93.7766C357.497 91.6957 359.154 90.0087 361.199 90.0087H364.062C366.107 90.0087 367.764 91.6957 367.764 93.7766V97.4562C367.764 99.5372 366.107 101.224 364.062 101.224H361.199C359.154 101.224 357.497 99.5372 357.497 97.4562V93.7766Z" fill="#2845E7"/>
<path d="M233.077 93.7766C233.077 91.6957 234.735 90.0087 236.779 90.0087H240.452C242.497 90.0087 244.154 91.6957 244.154 93.7766V97.4562C244.154 99.5372 242.497 101.224 240.452 101.224H236.779C234.735 101.224 233.077 99.5372 233.077 97.4562V93.7766Z" fill="#2845E7"/>
<path d="M530.158 93.7766C530.158 91.6957 531.815 90.0087 533.86 90.0087H537.533C539.577 90.0087 541.235 91.6957 541.235 93.7766V97.4562C541.235 99.5372 539.577 101.224 537.533 101.224H533.86C531.815 101.224 530.158 99.5372 530.158 97.4562V93.7766Z" fill="#2845E7"/>
<path d="M233.077 45.2647C233.077 43.1838 234.735 41.4968 236.779 41.4968H240.452C242.497 41.4968 244.154 43.1838 244.154 45.2647V48.9443C244.154 51.0253 242.497 52.7123 240.452 52.7123H236.779C234.735 52.7123 233.077 51.0253 233.077 48.9443V45.2647Z" fill="#2845E7"/>
<path d="M530.158 45.2647C530.158 43.1838 531.815 41.4968 533.86 41.4968H537.533C539.577 41.4968 541.235 43.1838 541.235 45.2647V48.9443C541.235 51.0253 539.577 52.7123 537.533 52.7123H533.86C531.815 52.7123 530.158 51.0253 530.158 48.9443V45.2647Z" fill="#2845E7"/>
<path d="M301.67 45.9219C300.849 47.8278 301.702 50.0501 303.575 50.8854L307.054 52.4374C308.926 53.2727 311.109 52.4048 311.93 50.4988L313.381 47.1287C314.202 45.2228 313.349 43.0005 311.477 42.1652L307.998 40.6133C306.125 39.7779 303.942 40.6458 303.121 42.5518L301.67 45.9219Z" fill="#2845E7"/>
<path d="M256.662 47.8209C255.815 45.9265 256.638 43.6926 258.499 42.8314L262.239 41.1009C264.1 40.2396 266.295 41.0771 267.141 42.9715L268.637 46.3211C269.483 48.2155 268.661 50.4494 266.799 51.3106L263.06 53.0411C261.199 53.9024 259.004 53.0649 258.158 51.1705L256.662 47.8209Z" fill="#2845E7"/>
<path d="M378.243 49.4269C376.944 47.8201 377.171 45.4456 378.75 44.1233L381.346 41.9483C382.925 40.626 385.258 40.8566 386.557 42.4634L427.835 93.5166C429.134 95.1234 428.908 97.4979 427.329 98.8203L424.733 100.995C423.154 102.317 420.821 102.087 419.522 100.48L378.243 49.4269Z" fill="#2845E7"/>
<path d="M376.768 93.5165C375.469 95.1234 375.696 97.4979 377.275 98.8202L379.871 100.995C381.45 102.317 383.783 102.087 385.082 100.48L426.36 49.4269C427.659 47.8201 427.433 45.4455 425.854 44.1232L423.258 41.9483C421.679 40.626 419.346 40.8566 418.047 42.4634L376.768 93.5165Z" fill="#2845E7"/>
</svg>
