<svg width="183" height="47" viewBox="0 0 183 47" fill="none" xmlns="http://www.w3.org/2000/svg">
<path d="M53.875 13.9154C53.875 12.9233 54.7163 12.0898 55.7639 12.0898C56.7242 12.0898 57.5338 12.9312 57.5338 13.9154V28.9237H65.6848C68.6214 28.9237 68.6769 32.8444 65.6848 32.8444H55.7718C54.7242 32.8444 53.8829 32.0983 53.8829 31.0189V13.9154H53.875Z" fill="white"/>
<path d="M72.6719 13.9182C72.6719 11.4657 76.6244 11.3705 76.6244 13.9182V31.0218C76.6244 33.506 72.6719 33.5695 72.6719 31.0218V13.9182Z" fill="white"/>
<path d="M89.3173 31.4952L81.4124 14.9312C80.2457 12.5661 83.7775 10.6216 85.095 13.1057L87.7618 19.1297L91.2063 27.0347L94.5874 19.1297L97.2541 13.1057C98.4525 10.8279 101.929 12.2644 100.905 14.7566L93.2699 31.5031C92.5793 33.392 90.4523 33.8365 89.3173 31.5031V31.4952Z" fill="white"/>
<path d="M107.24 32.848C106.192 32.848 105.383 32.0384 105.383 30.9907V13.9745C105.383 12.8951 106.192 12.1172 107.24 12.1172H117.994C120.748 12.1172 120.693 16.0142 117.994 16.0142H109.367V20.5064H116.915C119.581 20.5064 119.581 24.4271 116.915 24.4271H109.367V28.9192H118.503C121.224 28.9192 121.438 32.84 118.503 32.84H107.24V32.848Z" fill="white"/>
<path d="M133.002 19.3111L138.217 12.7792C139.773 10.7394 142.797 13.3506 141.09 15.295C139.297 17.4222 137.408 19.7317 135.606 22.0968L141.717 29.7081C143.368 31.9542 140.067 34.113 138.455 31.8986L132.947 24.8271L127.527 32.0495C126.003 34.24 122.614 31.7797 124.32 29.7399L130.344 22.1048C128.455 19.7396 126.629 17.4301 124.804 15.303C122.916 13.0569 126.424 10.7474 127.796 12.8506L133.011 19.319L133.002 19.3111Z" fill="white"/>
<path d="M145.312 30.2466C145.312 27.548 149.654 27.548 149.654 30.2466V30.8179C149.654 33.4847 145.312 33.6355 145.312 30.8179V30.2466Z" fill="white"/>
<path d="M154.182 32.8466C153.223 32.3069 152.627 31.2275 153.223 29.9735L161.818 13.1714C162.627 11.5841 164.786 11.5206 165.532 13.1714L173.977 29.9735C175.207 32.3069 171.58 34.164 170.5 31.8306L169.183 29.1957H158.127L156.841 31.8306C156.365 32.8466 155.254 33.0608 154.175 32.8466H154.182ZM167.064 25.2432L163.683 17.8462L160.001 25.2432H167.072H167.064Z" fill="white"/>
<path d="M178.406 13.9182C178.406 11.4657 182.358 11.3705 182.358 13.9182V31.0218C182.358 33.506 178.406 33.5695 178.406 31.0218V13.9182Z" fill="white"/>
<path d="M26.9844 15.7891V31.972C26.9844 33.2578 27.6669 34.1784 29.294 35.0911C31.4448 36.2896 39.3736 38.8055 42.2308 39.7182C43.9134 40.25 45.207 38.7182 43.2467 36.4801C41.6118 34.6229 34.4131 26.6782 30.7304 22.7337C28.8892 20.7653 26.9844 19.1463 26.9844 15.7891Z" fill="white"/>
<path d="M26.9767 22.9375V31.9615C26.9767 33.2472 27.6592 34.1679 29.2863 35.0806C31.4371 36.279 39.3659 38.795 42.2231 39.7077C43.3263 40.0569 44.2628 39.5173 44.2231 38.4775C44.0009 40.0093 42.1279 38.9776 40.6675 37.8902C38.3421 36.1521 34.8976 33.271 30.7148 29.89C28.6195 28.1995 26.9688 26.3026 26.9688 22.9453L26.9767 22.9375Z" fill="white"/>
<path d="M26.9844 31.9675V15.7846C26.9844 14.0862 27.913 12.0464 30.6035 10.5385C34.4211 8.39551 43.2705 3.28426 48.2786 0.792134C51.8263 -0.977755 53.1438 0.29212 49.985 3.86365C47.7071 6.43514 36.5878 18.8402 31.6353 24.5309C29.7304 26.7214 27.3654 28.896 26.9844 31.9755V31.9675Z" fill="white"/>
<path d="M24.584 31.2109V15.0279C24.584 13.7422 23.9015 12.8215 22.2744 11.9087C20.1236 10.7104 12.1948 8.19437 9.33759 7.28166C7.655 6.7499 6.36131 8.28169 8.32168 10.5199C9.95664 12.377 17.1553 20.3217 20.8378 24.2662C22.6792 26.2345 24.584 27.8536 24.584 31.2109Z" fill="white"/>
<path d="M24.7946 24.0521V15.0281C24.7946 13.7423 24.112 12.8217 22.485 11.9089C20.3342 10.7105 12.4054 8.19455 9.54815 7.28183C8.44494 6.93261 7.5084 7.47231 7.54809 8.51202C7.77032 6.98023 9.64339 8.01201 11.1037 9.09933C13.4292 10.8374 16.8737 13.7185 21.0564 17.0996C23.1516 18.79 24.8025 20.687 24.8025 24.0441L24.7946 24.0521Z" fill="white"/>
<path d="M26.9767 24.5009V15.7943C26.9767 14.0959 27.9053 12.0561 30.5959 10.5482C34.4134 8.40525 43.2628 3.294 48.2709 0.801866C50.7312 -0.42039 52.1123 -0.190224 51.6836 1.25425C51.8027 0.151055 50.7312 0.38122 49.755 1.15108C46.9852 3.32575 36.6833 11.191 31.2228 16.0007C27.8656 18.9611 27.3577 21.4294 26.9688 24.5088L26.9767 24.5009Z" fill="white"/>
<path d="M24.7871 15.0275V31.2104C24.7871 32.9089 23.8586 34.9486 21.168 36.4565C17.3505 38.5995 8.50099 43.7108 3.49291 46.2028C-0.0547961 47.9728 -1.37229 46.7029 1.78652 43.1313C4.06436 40.5599 15.1838 28.1548 20.1362 22.4641C22.041 20.2736 24.4062 18.099 24.7871 15.0195V15.0275Z" fill="white"/>
<path d="M24.7844 21.1368V31.2165C24.7844 32.915 23.8558 34.9547 21.1652 36.4626C17.3477 38.6055 8.49825 43.7169 3.49017 46.2089C1.02979 47.4312 -0.351195 47.2011 0.0773882 45.7566C-0.0416625 46.8598 1.02979 46.6296 2.00601 45.8598C4.77593 43.6851 16.2683 34.6293 21.6891 29.772C23.8558 27.8354 24.7923 24.9703 24.7923 21.1289L24.7844 21.1368Z" fill="white"/>
</svg>
